<svg xmlns="http://www.w3.org/2000/svg" version="1.1" xmlns:xlink="http://www.w3.org/1999/xlink" width="1000" height="1000"><metadata><rdf:RDF xmlns:rdf="http://www.w3.org/1999/02/22-rdf-syntax-ns#" xmlns:dc="http://purl.org/dc/elements/1.1/"><rdf:Description><dc:creator>RealFaviconGenerator</dc:creator><dc:source>https://realfavicongenerator.net</dc:source></rdf:Description></rdf:RDF></metadata><style>
    #light-icon {
      display: inline;
    }
    #dark-icon {
      display: none;
    }

    @media (prefers-color-scheme: dark) {
      #light-icon {
        display: none;
      }
      #dark-icon {
        display: inline;
      }
    }
  </style><g id="light-icon"><svg xmlns="http://www.w3.org/2000/svg" version="1.1" xmlns:xlink="http://www.w3.org/1999/xlink" width="1000" height="1000"><g clip-path="url(#SvgjsClipPath1221)"><rect width="1000" height="1000" fill="#ffffff"></rect><g transform="matrix(1.25,0,0,1.25,100,100)"><svg xmlns="http://www.w3.org/2000/svg" viewBox="0 0 640 640" width="640" height="640"><metadata><rdf:rdf xmlns:rdf="http://www.w3.org/1999/02/22-rdf-syntax-ns#" xmlns:dc="http://purl.org/dc/elements/1.1/"><rdf:description><dc:creator>RealFaviconGenerator</dc:creator><dc:source>https://realfavicongenerator.net</dc:source></rdf:description></rdf:rdf></metadata><path d="M73.4 182.6C60.9 170.1 60.9 149.8 73.4 137.3C85.9 124.8 106.2 124.8 118.7 137.3L278.7 297.3C291.2 309.8 291.2 330.1 278.7 342.6L118.7 502.6C106.2 515.1 85.9 515.1 73.4 502.6C60.9 490.1 60.9 469.8 73.4 457.3L210.7 320L73.4 182.6zM288 448L544 448C561.7 448 576 462.3 576 480C576 497.7 561.7 512 544 512L288 512C270.3 512 256 497.7 256 480C256 462.3 270.3 448 288 448z"></path></svg></g></g><defs><clipPath id="SvgjsClipPath1221"><rect width="1000" height="1000" x="0" y="0" rx="150" ry="150"></rect></clipPath></defs></svg></g><g id="dark-icon"><svg xmlns="http://www.w3.org/2000/svg" version="1.1" xmlns:xlink="http://www.w3.org/1999/xlink" width="1000" height="1000"><g clip-path="url(#SvgjsClipPath1222)"><rect width="1000" height="1000" fill="#ffffff"></rect><g transform="matrix(1.09375,0,0,1.09375,150,150)"><svg xmlns="http://www.w3.org/2000/svg" viewBox="0 0 640 640" width="640" height="640"><metadata><rdf:rdf xmlns:rdf="http://www.w3.org/1999/02/22-rdf-syntax-ns#" xmlns:dc="http://purl.org/dc/elements/1.1/"><rdf:description><dc:creator>RealFaviconGenerator</dc:creator><dc:source>https://realfavicongenerator.net</dc:source></rdf:description></rdf:rdf></metadata><path d="M73.4 182.6C60.9 170.1 60.9 149.8 73.4 137.3C85.9 124.8 106.2 124.8 118.7 137.3L278.7 297.3C291.2 309.8 291.2 330.1 278.7 342.6L118.7 502.6C106.2 515.1 85.9 515.1 73.4 502.6C60.9 490.1 60.9 469.8 73.4 457.3L210.7 320L73.4 182.6zM288 448L544 448C561.7 448 576 462.3 576 480C576 497.7 561.7 512 544 512L288 512C270.3 512 256 497.7 256 480C256 462.3 270.3 448 288 448z"></path></svg></g></g><defs><clipPath id="SvgjsClipPath1222"><rect width="1000" height="1000" x="0" y="0" rx="350" ry="350"></rect></clipPath></defs></svg></g></svg>